PathFileType	4	(X/Y/Z)	Patient4_TMGait_0pt4_02_left_31.trc.trc
DataRate	CameraRate	NumFrames	NumMarkers	Units	OrigDataRate	OrigDataStartFrame	OrigNumFrames
76.502732240437	76.502732240437	4	33	mm	76.502732240437	124	       141
Frame#	Time	Sacral			L.Shoulder			Chest			R.Shoulder			Neck			R.ASIS			L.ASIS			R.Thigh.Superior			R.Thigh.Lateral			R.Thigh.Inferior			R.Patella			L.Thigh.Superior			L.Thigh.Lateral			L.Thigh.Inferior			L.Patella			L.Shank.Superior			L.Shank.Lateral			L.Shank.Inferior			R.Shank.Superior			R.Shank.Lateral			R.Shank.Inferior			R.Heel			R.Midfoot.Superior			R.Midfoot.Lateral			R.Toe			L.Heel			L.Midfoot.Lateral			L.Midfoot.Superior			L.Toe			L.Elbow			L.Wrist			R.Elbow			R.Wrist			
		X1	Y1	Z1	X2	Y2	Z2	X3	Y3	Z3	X4	Y4	Z4	X5	Y5	Z5	X6	Y6	Z6	X7	Y7	Z7	X8	Y8	Z8	X9	Y9	Z9	X10	Y10	Z10	X11	Y11	Z11	X12	Y12	Z12	X13	Y13	Z13	X14	Y14	Z14	X15	Y15	Z15	X16	Y16	Z16	X17	Y17	Z17	X18	Y18	Z18	X19	Y19	Z19	X20	Y20	Z20	X21	Y21	Z21	X22	Y22	Z22	X23	Y23	Z23	X24	Y24	Z24	X25	Y25	Z25	X26	Y26	Z26	X27	Y27	Z27	X28	Y28	Z28	X29	Y29	Z29	X30	Y30	Z30	X31	Y31	Z31	X32	Y32	Z32	X33	Y33	Z33	

124	43.147785714286	851.760635565440	1005.395465681713	514.351667933378	1003.619927795646	1428.375985021406	307.215481802831	1133.449515979033	1360.083258166739	447.045013689962	1084.433090001242	1434.767897925875	633.117775379868	1014.551818376983	1490.087633674901	462.568555650105	1092.001632120906	933.911410252881	596.750933072334	1040.937621112623	957.007546732149	326.499814580458	1088.860429505176	722.077335455229	569.946455820540	993.095308287126	627.362321362039	642.242882707498	1047.190214451251	562.866910775723	557.380018689207	1030.169579789535	478.840708824649	564.618148138067	1114.971323864038	765.497545454004	352.720621490557	1052.431366555362	637.907168410437	284.223933780826	1156.748474501979	576.869760200020	340.120998977732	1177.726925522179	509.927837033084	338.686769223138	1156.660049360608	437.088940239811	328.570362857489	1079.401083385874	312.696313441343	279.974897626447	1159.887584255763	207.215874404199	332.595921340164	992.721829535966	393.983674060553	575.773844959161	913.518676258848	299.957804927177	644.016505506390	938.290672305330	200.572685517322	579.159127068517	789.409732421968	42.721345520084	555.163298092579	960.115162718938	95.691432444897	590.186267915511	872.351106372746	36.436111166758	630.377070412873	1080.707457206765	42.309937046260	619.086273865806	1062.499841142727	39.281807231704	372.724218821750	1133.836932282733	38.647192372921	290.283013272196	1212.997941997676	106.700155950909	312.155878043970	1342.255734159294	64.315556701279	280.283465619647	863.434020974249	1096.731998708357	237.471854058218	829.725154933787	838.634718151117	259.673078399486	1226.272691750787	1125.880964842432	747.082266292026	1448.989936082275	1221.631024064043	685.069156892619	
125	43.160857142857	853.176407328695	1004.296176881602	511.553619858984	1003.800418538178	1427.523249856899	304.394981284713	1133.587341976971	1359.936535754996	444.606572766568	1083.656257987397	1434.242919793004	630.676490348258	1014.271001909285	1489.460419323376	459.847840331170	1093.616294421561	933.239050607384	594.473346316771	1042.746105114905	956.201803438188	324.356142774053	1090.115185808293	721.127274430121	568.233586769228	993.316737306167	626.817928298360	640.299345697686	1047.226553510554	561.706674849911	555.888071376163	1029.542438309165	477.447507378775	563.085049019019	1115.861299502899	762.959773660134	350.260763067207	1051.092669687989	636.037533876440	283.094201925373	1155.304084760500	574.606841561692	339.020446540667	1175.009845825021	507.135806042661	338.118345435517	1153.706963174586	434.330370606802	328.066730295134	1075.318180149915	310.336882745777	280.163386601706	1154.826648278917	204.446671496163	333.245099672001	991.058111700509	393.098667547563	574.495732370982	910.881296959539	300.218849844094	643.352409679264	934.409714364607	200.288030272397	578.828816379107	784.168170090987	43.128161379147	555.451910048561	955.026341090552	95.673343624034	590.317294300362	867.188131968834	36.455146406479	630.500055843191	1075.543996335519	41.923174468579	619.193667490885	1055.275900914393	38.570253950535	374.090015865304	1126.376906912650	37.046208187147	291.325123057774	1206.928735053421	103.288011778920	313.539528054197	1335.585850371919	58.465597980246	281.144599197276	865.497978574715	1095.118607541170	234.245955076792	832.826156144151	836.815429012121	256.122793033671	1223.548557950775	1123.208789103856	743.559255782935	1448.204421431866	1216.149224479267	683.263544224257	
126	43.173928571429	854.538338110484	1003.414500699056	508.747382891024	1004.042144605807	1426.819476864408	301.531051041389	1133.790095781317	1359.927659866184	442.119843986398	1082.994636756881	1433.919060510990	628.177019906430	1014.061883532708	1489.008341187957	457.068281451376	1095.184043484217	932.672727290207	591.966395272219	1044.366631152172	955.741557056064	322.025900465780	1091.522229857151	720.321059861002	566.205765978586	993.928702807313	626.337692723432	638.161840717585	1047.680193023232	560.644726464156	554.151865924158	1029.451774928000	476.011212741032	561.410367387474	1116.809983909541	761.060355662337	347.767203908683	1050.338696471808	634.825456712096	281.669716097057	1154.325372297112	573.027389874575	337.795873434575	1172.778025427306	504.993748186070	337.360754771130	1151.309490039726	432.163658251644	327.334719194773	1071.977283353844	308.605522243953	279.765066858574	1150.255210919117	202.269367070305	333.547613083263	989.789393309185	392.226848577184	573.104633427250	908.544111836809	300.620761151004	642.607714116893	930.725664767730	200.108705567468	578.488220246674	778.942542469507	43.800752915746	555.815681983673	950.044683828545	95.719523383869	590.496419265823	862.073124733507	36.564389402489	630.639276627165	1070.429279016052	41.488587303541	619.307419163276	1048.602779884153	38.130402918310	374.916904776751	1119.582844047313	35.953357472410	291.949717308109	1201.229544961996	100.689652227353	314.595292808956	1329.435425054787	53.904364084132	281.890547554182	868.352085198400	1093.320966428779	230.672323892437	837.191812966736	834.728599381640	251.926935602939	1220.107558305127	1120.351993481557	740.123669363255	1447.290508554818	1209.197906340504	681.768166949908	
127	43.187000000000	855.820608619636	1002.792750044866	505.936907827560	1004.316731022567	1426.324557273622	298.672802396196	1134.050999496820	1360.068035533172	439.591863199655	1082.506333980510	1433.819087680874	625.629812171431	1013.928404602689	1488.762347273093	454.268600258357	1096.652342739633	932.262780061654	589.216104676401	1045.757419935780	955.644489815478	319.462177934151	1092.984512089725	719.711906692331	563.852905864579	994.889098766566	625.962923943765	635.858911497929	1048.542254649517	559.732586583401	552.205865947056	1029.933055860566	474.561109454588	559.679835198920	1117.857004620241	759.926760287930	345.228653228672	1050.237792482732	634.278693662434	279.959300332964	1153.869168810677	572.129030089956	336.376458459507	1171.092691933910	503.500306736737	336.370792354003	1149.501711365519	430.582298898225	326.382881529653	1069.374736175515	307.505012967451	278.826881131242	1146.165768361642	200.680731207278	333.531512876250	988.936556227926	391.402718657500	571.659536878744	906.506935348425	301.203151603809	641.803853863669	927.261391189437	200.077921035631	578.162140661556	773.750418782966	44.825020154463	556.246624359648	945.204579415481	95.850652497191	590.737712221411	857.014633443673	36.812700048310	630.792481715028	1065.368830809918	41.009677020807	619.426574692901	1042.501358270263	37.924965997984	375.287140673564	1113.448849171528	35.313546299517	292.217905573809	1195.885661233112	98.898737961073	315.309439010419	1323.785735564036	50.654947973347	282.469204931285	871.936549221621	1091.441031533811	226.792545544508	842.814407072558	832.481643204856	247.111810117860	1215.995199457421	1117.398068552451	736.780748159311	1446.218193054877	1200.765947393002	680.563548152232	
